<svg xmlns="http://www.w3.org/2000/svg" viewBox="1010.144 710 35 35">
  <path id="noti" stroke="#000000"  fill="none" stroke-miterlimit="10" class="cls-1" d="M35.263,36.588a.369.369,0,0,1,0,.041,3.02,3.02,0,1,1-6.041,0c0-.013,0-.027,0-.041-9.661-.265-12.136-1.84-12.136-3.747a2.069,2.069,0,0,1,.9-1.662c4.567-5.088,5.924-3.679,5.924-11.216,0-5.025.206-9.632,6.257-10.461a2.266,2.266,0,1,1,4.155,0c6.051.829,6.257,5.436,6.257,10.461,0,7.559,1.364,6.116,5.965,11.259A2.046,2.046,0,0,1,47.4,32.84C47.4,34.747,44.86,36.32,35.263,36.588Z" transform="translate(993.551 704.173)"/>
</svg>
